<?xml version="1.0" ?><svg style="enable-background:new 0 0 48 48;" version="1.1" viewBox="0 0 48 48" xml:space="preserve" xmlns="http://www.w3.org/2000/svg" xmlns:xlink="http://www.w3.org/1999/xlink"><g id="Icons"><g><path d="M41.725,37.93505c0,0-6.62,2.58-15.65,3.1c-0.68,0.04-1.37,0.07-2.08,0.08    c-0.94-0.02-1.86-0.06-2.75-0.12c-8.67-0.61-14.97-3.06-14.97-3.06c2.59-9.47,12.46-9.85,12.46-9.85l1.39-0.25l3.87-0.11    l3.77,0.16l1.58,0.22C29.345,28.10505,39.135,28.46505,41.725,37.93505z" style="fill:#F43735;"/><path d="M26.075,41.03505c-0.68,0.04-1.37,0.07-2.08,0.08c-0.94-0.02-1.86-0.06-2.75-0.12l1.82-8.16l1-0.56    l0.89,0.61L26.075,41.03505z" style="fill:#1D97FF;"/><polygon points="25.7593,31.14425 24.5827,29.20685 23.6908,29.20685 22.3003,31.25435 23.0694,32.83035     24.9579,32.88865   " style="fill:#0D7CCE;"/><path d="M29.349,28.10225l-2.8545,4.2987l-2.2336-2.9136c0,0,2.8365-0.8774,3.6015-1.7865L29.349,28.10225z    " style="fill:#F4F4F4;"/><path d="M18.7305,28.08715l2.9006,4.3138l2.2335-2.9136c0,0-2.9173-0.9614-3.6822-1.8705L18.7305,28.08715z    " style="fill:#F4F4F4;"/><path d="M20.2143,25.57435l-0.1827,2.1161c0,0,3.6389,3.9932,7.9956,0.0613l-0.4027-2.1774H20.2143z" style="fill:#DDBEA8;"/><path d="M16.6039,17.72805c0,0-1.2106,0.5973-1.1542,2.1488c0.0564,1.5516,0.9284,2.2307,1.9637,2.1382    c0,0,0.9789,2.8659,2.8491,4.116c1.8701,1.25,5.4603,2.3079,7.7647-0.5235c2.3043-2.8314,2.0858-3.5694,2.0858-3.5694    s1.4547,0.3312,2.0384-1.3073c0.5386-1.5122-0.3281-3.2586-1.3082-2.9348c-0.0093,0.0031,0.0312-0.0939,0.0307-0.1218    c-0.0046-0.2182,0.1782-1.1788,0.1048-1.128c0,0,0.0173-4.4339-4.1667-5.5524c0,0-3.8192,1.4816-6.2662,0.1297    c0,0-3.4149,1.2513-3.7532,4.3023L16.6039,17.72805z" style="fill:#F9D9C0;"/><path d="M23.9693,28.60865c4.1974-2.5895,3.3542-5.7532,3.3542-5.7532l-0.0001,0.0009H20.619    l-0.0039-0.0009C20.6151,22.85545,19.7719,26.01915,23.9693,28.60865" style="fill:#CCCCCC;"/><g><path d="M24.685,24.66715h-1.4316c-0.2208,0-0.3999-0.1797-0.3999-0.4004     c0-0.2207,0.1791-0.4004,0.3999-0.4004h1.4316c0.2207,0,0.3999,0.1797,0.3999,0.4004     C25.0849,24.48745,24.9057,24.66715,24.685,24.66715z" style="fill:#F9D9C0;"/></g><g><path d="M23.954,21.97765c-0.0586,0-0.1172-0.0137-0.1714-0.0391l-0.6108-0.29     c-0.1997-0.0947-0.2847-0.333-0.1899-0.5332c0.0947-0.1982,0.3335-0.2852,0.5327-0.1895l0.4433,0.211l0.4732-0.2139     c0.2012-0.0908,0.4385-0.001,0.5288,0.1992c0.0913,0.2012,0.0019,0.4385-0.1997,0.5293l-0.6416,0.2901     C24.0663,21.96495,24.0102,21.97765,23.954,21.97765z" style="fill:#CEAA91;"/></g><path d="M18.5772,9.40875c-3.192,2.2729-1.9837,8.3815-1.9733,8.3193    c0.7724-4.638,3.8425-5.8421,3.8425-5.8421c0.2017-0.8453-0.243-1.0478-0.5304-1.4858    C19.475,9.72795,18.5772,9.40875,18.5772,9.40875z" style="fill:#575959;"/><path d="M29.2547,10.70065c-0.7646-0.2914-2.0029-0.228-2.3385-0.0626    c-0.7893,0.389-0.169,1.2437-0.169,1.2437c3.8082,0.5769,4.0958,5.9152,4.0958,5.9152s0.6467-1.0468,0.7618-4.0459    C31.7199,10.75185,29.2547,10.70065,29.2547,10.70065z" style="fill:#575959;"/><path d="M22.0418,8.56475c-1.9386,0.2765-3.8297-1.6798-3.8297-1.6798    c-0.0262,1.1743,0.3651,2.5238,0.3651,2.5238s0.3882,1.8183,1.8692,2.4772c2.8038,1.4743,6.3008-0.0042,6.3008-0.0042    s1.4878-0.3682,2.5075-1.1811C27.828,7.65015,23.9804,8.28825,22.0418,8.56475z" style="fill:#464747;"/><g><g><path d="M25.3115,19.06945h-2.6963c-0.2207,0-0.3999-0.1797-0.3999-0.4004s0.1792-0.4004,0.3999-0.4004      h2.6963c0.2207,0,0.3999,0.1797,0.3999,0.4004S25.5322,19.06945,25.3115,19.06945z" style="fill:#575959;"/></g><g><path d="M28.6274,19.13975c-0.1499,0-0.2935-0.085-0.3618-0.2295      c-0.0948-0.1992-0.0098-0.4375,0.1899-0.5322l2.356-1.1172c0.1997-0.0957,0.4384-0.0088,0.5327,0.1904      c0.0947,0.1993,0.0097,0.4375-0.19,0.5323l-2.3559,1.1171C28.7431,19.12705,28.6845,19.13975,28.6274,19.13975z" style="fill:#575959;"/></g><g><path d="M19.1904,19.05965c-0.0494,0-0.0992-0.0097-0.1475-0.0283l-2.6103-1.0371      c-0.2056-0.082-0.3057-0.3145-0.2242-0.5195c0.0816-0.2051,0.3164-0.3028,0.5191-0.2246l2.6103,1.0371      c0.2056,0.082,0.3057,0.3144,0.2241,0.5195C19.4999,18.96395,19.3495,19.05965,19.1904,19.05965z" style="fill:#575959;"/></g></g><g><circle cx="26.9679" cy="18.6731" r="2.0577" style="fill:#FFFFFF;"/><circle cx="20.87428" cy="18.604" r="2.05772" style="fill:#FFFFFF;"/></g></g></g></svg>